<?xml version="1.0" encoding="UTF-8" standalone="no"?>
<!-- Created with Inkscape (http://www.inkscape.org/) -->

<svg
   version="1.1"
   id="svg25"
   xml:space="preserve"
   width="560"
   height="250"
   viewBox="0 0 509.09091 227.27273"
   xmlns="http://www.w3.org/2000/svg"
   xmlns:svg="http://www.w3.org/2000/svg"><defs
     id="defs29" /><g
     id="g31"
     transform="matrix(1.3333333,0,0,-1.3333333,-13.989404,326.47743)"><path
       d="m 48.8018,81.4666 c 0,0 44.627,31.2318 37.1024,60.0449 -9.5468,36.5567 -71.731,72.5547 -71.731,72.5547 0,0 42.8375,-32.6818 51.9435,-67.5507 C 74.2723,115.2853 48.8018,81.4666 48.8018,81.4666"
       style="fill:#ef7c00;fill-opacity:1;fill-rule:evenodd;stroke:none"
       id="path33" /><path
       d="m 110.749,237.795 c 0,0 -44.6269,-31.2324 -37.1021,-60.0454 9.5468,-36.5567 71.731,-72.555 71.731,-72.555 0,0 -42.8371,32.682 -51.9432,67.5513 -8.1555,31.2298 17.3143,65.0491 17.3143,65.0491"
       style="fill:#ef7c00;fill-opacity:1;fill-rule:evenodd;stroke:none"
       id="path35" /><path
       d="m 133.5121,166.5828 c 4,0 6.0333,2.6334 6.0999,7.8998 h 12.9832 c -0.0666,-5.7665 -1.8332,-10.4332 -5.3166,-13.9833 -3.4833,-3.5498 -7.9833,-5.3166 -13.4833,-5.3166 -6.7998,0 -11.9999,2.1166 -15.5832,6.3502 -3.5666,4.2332 -5.4,10.4666 -5.4666,18.6998 v 4.2001 c 0,8.3166 1.7665,14.6498 5.2999,18.9998 3.5334,4.3668 8.75,6.55 15.6501,6.55 5.8331,0 10.4165,-1.8 13.7665,-5.4 3.3667,-3.6 5.0666,-8.7001 5.1332,-15.3167 H 139.612 c -0.0332,3.0002 -0.5332,5.3002 -1.4667,6.9001 -0.9499,1.6166 -2.5166,2.4165 -4.6834,2.4165 -2.4165,0 -4.1332,-0.8665 -5.1831,-2.5832 -1.0335,-1.7167 -1.6002,-5.0332 -1.6668,-9.9833 v -5.4 c 0,-4.3166 0.2169,-7.3333 0.6333,-9.0499 0.4334,-1.7167 1.1335,-2.9835 2.1001,-3.7834 0.9834,-0.8 2.3667,-1.1999 4.1667,-1.1999 z m 25.2998,17.7165 c 0,7.9999 1.9,14.2832 5.6667,18.8501 3.7831,4.5499 9,6.8332 15.6833,6.8332 6.7334,0 11.9831,-2.2833 15.7665,-6.8332 3.7834,-4.5669 5.6668,-10.8833 5.6668,-18.9502 v -3.3664 c 0,-8.0501 -1.8666,-14.3334 -5.6169,-18.8668 -3.7499,-4.5165 -8.9832,-6.7833 -15.7164,-6.7833 -6.7833,0 -12.0501,2.2668 -15.8,6.8167 -3.7667,4.5332 -5.65,10.8499 -5.65,18.9168 z m 13.8665,-3.4832 c 0,-9.4833 2.5333,-14.2333 7.5835,-14.2333 4.65,0 7.1498,3.9665 7.5167,11.8831 l 0.0498,5.8334 c 0,4.8501 -0.6667,8.4334 -1.9998,10.7666 -1.3501,2.3502 -3.2335,3.5166 -5.6667,3.5166 -2.35,0 -4.1834,-1.1664 -5.5001,-3.5166 -1.3167,-2.3332 -1.9834,-5.9165 -1.9834,-10.7666 z m 63.5834,14.8833 -4.6001,0.3832 c -3.7664,0 -6.3332,-1.6667 -7.6666,-4.9833 v -34.9166 h -13.8665 v 52.7999 h 13.0499 l 0.3835,-5.7167 c 2.1832,4.4833 5.1999,6.7167 9.0331,6.7167 1.5668,0 2.8333,-0.2166 3.8166,-0.6332 z m 27.5,-40.5167 c -7.0999,0 -12.6332,2.1166 -16.6167,6.3502 -3.9665,4.2332 -5.9499,10.2832 -5.9499,18.1663 v 4.2001 c 0,8.3333 1.8167,14.7666 5.4666,19.3 3.6502,4.5167 8.8668,6.7833 15.6832,6.7833 6.6334,0 11.6334,-2.1166 14.9834,-6.3666 3.35,-4.25 5.0667,-10.5333 5.1333,-18.8501 v -6.7833 h -27.4998 c 0.1999,-3.9498 1.0667,-6.8332 2.5832,-8.6667 1.5333,-1.8164 3.8999,-2.7331 7.0835,-2.7331 4.6333,0 8.4833,1.5998 11.5832,4.8166 l 5.4168,-8.35 c -1.7003,-2.3499 -4.1502,-4.25 -7.3834,-5.6999 -3.2168,-1.4502 -6.7167,-2.1668 -10.4834,-2.1668 z m -8.6998,32.4 h 13.8166 v 1.2832 c -0.0669,3.1833 -0.5834,5.6001 -1.5667,7.2502 -0.9666,1.6498 -2.6668,2.4664 -5.0666,2.4664 -2.4169,0 -4.1667,-0.8665 -5.2501,-2.6166 -1.1001,-1.7331 -1.7334,-4.5332 -1.9332,-8.3832"
       style="fill:#1a1a18;fill-opacity:1;fill-rule:nonzero;stroke:none"
       id="path37" /><path
       d="m 296.9408,156.3069 c -2.6595,0 -4.7322,0.7928 -6.2241,2.3783 -1.4859,1.5857 -2.2289,3.852 -2.2289,6.8048 v 1.5732 c 0,3.1213 0.6806,5.531 2.0478,7.2292 1.3671,1.6918 3.3211,2.5407 5.8745,2.5407 2.4846,0 4.3574,-0.7928 5.6123,-2.3848 1.2549,-1.5919 1.8978,-3.9452 1.9228,-7.0605 v -2.5407 h -10.3006 c 0.0749,-1.4797 0.3994,-2.5597 0.9675,-3.2465 0.5743,-0.6803 1.461,-1.0236 2.6532,-1.0236 1.7357,0 3.1777,0.5993 4.3387,1.804 l 2.0291,-3.1275 c -0.6367,-0.8804 -1.5545,-1.5919 -2.7655,-2.135 -1.205,-0.5432 -2.516,-0.8116 -3.9268,-0.8116 z m -3.2588,12.136 h 5.1753 v 0.4807 c -0.025,1.1923 -0.2186,2.0977 -0.5868,2.7156 -0.362,0.618 -0.9989,0.9238 -1.8978,0.9238 -0.9054,0 -1.5608,-0.3245 -1.9667,-0.9799 -0.4119,-0.6494 -0.6491,-1.6982 -0.724,-3.1402 z m 17.9108,8.0158 0.1434,-1.9477 c 1.1738,1.548 2.7031,2.3221 4.5947,2.3221 3.4024,0 5.1505,-2.3848 5.2503,-7.1478 v -13.0039 h -5.1939 v 12.6666 c 0,1.1301 -0.1687,1.9479 -0.5057,2.4536 -0.3371,0.5055 -0.9241,0.7614 -1.7669,0.7614 -0.9362,0 -1.6667,-0.4804 -2.1911,-1.4482 v -14.4334 h -5.194 v 19.7773 z m 21.7063,-20.1518 c -2.6595,0 -4.7322,0.7928 -6.2241,2.3783 -1.4859,1.5857 -2.2289,3.852 -2.2289,6.8048 v 1.5732 c 0,3.1213 0.6806,5.531 2.0478,7.2292 1.3671,1.6918 3.3211,2.5407 5.8745,2.5407 2.4846,0 4.3574,-0.7928 5.6123,-2.3848 1.2549,-1.5919 1.8978,-3.9452 1.9228,-7.0605 v -2.5407 h -10.3006 c 0.0749,-1.4797 0.3994,-2.5597 0.9675,-3.2465 0.5743,-0.6803 1.461,-1.0236 2.6532,-1.0236 1.7357,0 3.1777,0.5993 4.3387,1.804 l 2.0291,-3.1275 c -0.6367,-0.8804 -1.5545,-1.5919 -2.7655,-2.135 -1.205,-0.5432 -2.516,-0.8116 -3.9268,-0.8116 z m -3.2588,12.136 h 5.1753 v 0.4807 c -0.025,1.1923 -0.2186,2.0977 -0.5868,2.7156 -0.362,0.618 -0.9989,0.9238 -1.8978,0.9238 -0.9054,0 -1.5608,-0.3245 -1.9667,-0.9799 -0.4119,-0.6494 -0.6491,-1.6982 -0.724,-3.1402 z m 22.955,3.0401 -1.7232,0.1437 c -1.4108,0 -2.3723,-0.6241 -2.8718,-1.8666 v -13.0787 h -5.1939 v 19.7773 h 4.8881 l 0.1437,-2.1413 c 0.8178,1.6792 1.9477,2.5157 3.3834,2.5157 0.5871,0 1.0613,-0.081 1.4298,-0.2372 z m 1.673,-4.3075 c 0,3.24 0.5868,5.6622 1.7603,7.2604 1.1676,1.5981 2.8094,2.3972 4.9196,2.3972 1.7915,0 3.1714,-0.7052 4.1513,-2.1225 l 0.1998,1.7481 h 4.6633 v -19.7773 c 0,-2.5283 -0.7052,-4.4575 -2.1226,-5.7873 -1.4108,-1.3359 -3.4458,-2.0038 -6.0865,-2.0038 -1.0863,0 -2.2289,0.2186 -3.4212,0.6492 -1.1987,0.4308 -2.0851,0.9802 -2.6719,1.6543 l 1.7354,3.5773 c 0.487,-0.5057 1.1239,-0.9241 1.9043,-1.2424 0.7801,-0.3184 1.5168,-0.4808 2.2099,-0.4808 1.1611,0 1.9913,0.2747 2.497,0.8306 0.5057,0.5555 0.7679,1.4419 0.7804,2.6719 v 1.6979 c -0.9865,-1.2923 -2.2723,-1.9414 -3.858,-1.9414 -2.1101,0 -3.7394,0.8178 -4.8945,2.4596 -1.1486,1.6418 -1.7416,3.958 -1.7666,6.9421 z m 5.1752,-1.2986 c 0,-1.8479 0.2435,-3.1901 0.718,-4.0328 0.4746,-0.8427 1.2297,-1.2671 2.2661,-1.2671 1.0613,0 1.8479,0.3869 2.3598,1.1611 v 9.5516 c -0.5369,0.849 -1.311,1.2733 -2.3224,1.2733 -1.0236,0 -1.7853,-0.4243 -2.2785,-1.2733 -0.4932,-0.8493 -0.743,-2.2164 -0.743,-4.1017 z m 20.6326,-0.5805 2.6282,11.1623 h 5.5248 l -6.5112,-22.7302 c -0.974,-3.3525 -2.8094,-5.0255 -5.5063,-5.0255 -0.618,0 -1.3297,0.1187 -2.1164,0.3495 v 4.0518 l 0.5996,-0.0187 c 0.8053,0 1.4108,0.1559 1.8226,0.468 0.406,0.3059 0.7118,0.849 0.9241,1.6107 l 0.3994,1.3359 -5.7058,19.9585 h 5.5624 z"
       style="fill:#ef7c00;fill-opacity:1;fill-rule:nonzero;stroke:none"
       id="path39" /><path
       d="m 295.2624,186.6421 c 1.6106,0 2.8505,0.449 3.7128,1.3471 0.8623,0.9051 1.3328,2.1948 1.404,3.8837 h 2.2306 c -0.114,-2.3088 -0.8482,-4.119 -2.2094,-5.4374 -1.368,-1.3184 -3.0784,-1.9738 -5.138,-1.9738 -2.6864,0 -4.7175,0.8623 -6.0857,2.5796 -1.3754,1.7175 -2.0739,4.2687 -2.1025,7.6538 v 2.7578 c 0,3.4492 0.6914,6.0574 2.0597,7.8106 1.3682,1.7529 3.4064,2.6294 6.1072,2.6294 2.2377,0 4.0051,-0.7052 5.3019,-2.1163 1.2972,-1.4182 1.9812,-3.3923 2.0668,-5.9222 h -2.2306 c -0.0712,1.8601 -0.5488,3.3066 -1.4253,4.3257 -0.8765,1.019 -2.1166,1.5324 -3.7128,1.5324 -2.0024,0 -3.4775,-0.6772 -4.4184,-2.0239 -0.9405,-1.3471 -1.404,-3.4135 -1.404,-6.2071 v -2.5656 c 0,-2.8862 0.4706,-4.9884 1.4182,-6.3068 0.9479,-1.3113 2.4231,-1.967 4.4255,-1.967 z m 11.374,10.6827 c 0,3.2567 0.741,5.8362 2.2161,7.725 1.4752,1.8955 3.4849,2.8431 6.0361,2.8431 2.5583,0 4.5751,-0.9334 6.0432,-2.8006 1.468,-1.8598 2.209,-4.4326 2.2232,-7.7034 v -2.4016 c 0,-3.3139 -0.741,-5.8935 -2.2232,-7.7465 -1.4823,-1.8527 -3.4849,-2.7791 -6.0004,-2.7791 -2.5228,0 -4.5181,0.9049 -5.9933,2.7151 -1.4751,1.8102 -2.2447,4.3044 -2.3017,7.4755 z m 2.3445,-2.3233 c 0,-2.6011 0.5202,-4.6392 1.5749,-6.1288 1.0474,-1.4893 2.5084,-2.2306 4.3756,-2.2306 1.9026,0 3.3636,0.7127 4.3685,2.1453 1.0119,1.4323 1.525,3.4846 1.5392,6.15 v 2.3945 c 0,2.601 -0.5346,4.6462 -1.5891,6.1429 -1.0548,1.4894 -2.5158,2.2377 -4.3614,2.2377 -1.7957,0 -3.2284,-0.7271 -4.2829,-2.1878 -1.0547,-1.461 -1.6035,-3.4707 -1.6248,-6.0219 z m 21.6357,12.4639 0.0641,-3.3706 c 1.4037,2.5299 3.4206,3.7981 6.0503,3.7981 2.9075,0 4.7888,-1.3824 5.6369,-4.1544 0.7127,1.3753 1.6249,2.4156 2.7508,3.1141 1.1188,0.6914 2.3374,1.0403 3.6629,1.0403 4.0621,0 6.143,-2.6152 6.2427,-7.846 v -15.1577 h -2.3232 v 15.0296 c -0.0213,1.9525 -0.385,3.4064 -1.0831,4.3611 -0.6914,0.955 -1.8386,1.4326 -3.4209,1.4326 -1.4394,-0.0286 -2.6439,-0.5845 -3.6343,-1.6747 -0.9907,-1.0834 -1.5537,-2.4517 -1.6889,-4.0978 v -15.0508 h -2.3445 v 14.9723 c 0,1.9741 -0.3637,3.4492 -1.0905,4.4113 -0.7339,0.9621 -1.8743,1.4397 -3.4135,1.4397 -1.2685,0 -2.3661,-0.4419 -3.2924,-1.3184 -0.9264,-0.8767 -1.5962,-2.1308 -2.0095,-3.7627 v -15.7422 h -2.3233 v 22.5762 z m 32.5888,0 0.0641,-3.3706 c 1.4037,2.5299 3.4205,3.7981 6.0502,3.7981 2.9075,0 4.7889,-1.3824 5.637,-4.1544 0.7127,1.3753 1.6248,2.4156 2.7508,3.1141 1.1188,0.6914 2.3374,1.0403 3.6629,1.0403 4.062,0 6.143,-2.6152 6.2427,-7.846 v -15.1577 h -2.3232 v 15.0296 c -0.0213,1.9525 -0.385,3.4064 -1.0832,4.3611 -0.6913,0.955 -1.8385,1.4326 -3.4208,1.4326 -1.4394,-0.0286 -2.6439,-0.5845 -3.6343,-1.6747 -0.9907,-1.0834 -1.5537,-2.4517 -1.6889,-4.0978 v -15.0508 h -2.3445 v 14.9723 c 0,1.9741 -0.3637,3.4492 -1.0905,4.4113 -0.7339,0.9621 -1.8743,1.4397 -3.4135,1.4397 -1.2685,0 -2.3661,-0.4419 -3.2924,-1.3184 -0.9264,-0.8767 -1.5962,-2.1308 -2.0095,-3.7627 v -15.7422 h -2.3233 v 22.5762 z"
       style="fill:#1a1a18;fill-opacity:1;fill-rule:nonzero;stroke:none"
       id="path41" /><path
       d="m 170.4949,140.9417 v -2.5651 h 1.7163 v -0.9309 h -1.7163 v -6.669 c 0,-0.5508 0.0822,-0.9627 0.2437,-1.2317 0.1647,-0.2693 0.4403,-0.4022 0.8235,-0.4022 0.1647,0 0.4116,0.0317 0.741,0.0918 l 0.0283,-0.9215 c -0.2341,-0.1043 -0.5731,-0.1582 -1.0134,-0.1582 -1.2033,0 -1.8238,0.8297 -1.8555,2.4857 v 6.8051 h -1.5486 v 0.9309 h 1.5486 v 2.5651 z m 4.9906,-4.1389 c 0.2977,0.5383 0.6713,0.9692 1.1274,1.2858 0.4558,0.3198 0.9754,0.4782 1.5641,0.4782 1.7482,0 2.6476,-1.1653 2.6887,-3.4959 v -6.7261 h -1.0196 v 6.6246 c -0.007,0.8963 -0.1647,1.561 -0.472,1.9888 -0.3104,0.4274 -0.7948,0.6395 -1.4567,0.6395 -0.5383,0 -1.0228,-0.2027 -1.4533,-0.6081 -0.4306,-0.4053 -0.7569,-0.9626 -0.9786,-1.6687 v -6.9761 h -1.0292 v 14.2498 h 1.0292 z m 11.4251,-8.6479 c -1.1809,0 -2.1056,0.3864 -2.7737,1.1588 -0.6684,0.7758 -1.0072,1.8748 -1.0199,3.306 v 1.2223 c 0,1.4726 0.32,2.6283 0.9626,3.4677 0.6429,0.839 1.5296,1.2571 2.6538,1.2571 1.0894,0 1.9191,-0.3549 2.4922,-1.0672 0.5732,-0.7126 0.8643,-1.802 0.8771,-3.2681 v -0.9657 h -5.9658 v -0.5636 c 0,-1.1497 0.2469,-2.0364 0.7376,-2.66 0.4909,-0.6239 1.1843,-0.9374 2.0837,-0.9374 0.9879,0 1.7892,0.3611 2.4004,1.0831 l 0.5383,-0.6874 c -0.6557,-0.896 -1.6498,-1.3456 -2.9863,-1.3456 z m -0.1772,9.4428 c -0.8107,0 -1.4312,-0.2849 -1.8683,-0.8581 -0.4371,-0.57 -0.6746,-1.406 -0.7189,-2.505 h 4.9272 v 0.2693 c -0.0504,2.0614 -0.8294,3.0938 -2.34,3.0938 z m 14.8388,-6.7797 c 0,0.4306 -0.1803,0.8074 -0.5383,1.1336 -0.3608,0.3229 -0.9657,0.6778 -1.8238,1.0639 -0.8549,0.3832 -1.4536,0.7064 -1.7955,0.9629 -0.339,0.2562 -0.589,0.5349 -0.7506,0.839 -0.1615,0.3039 -0.2406,0.6619 -0.2406,1.0766 0,0.7728 0.2786,1.4123 0.8328,1.916 0.5573,0.5034 1.2793,0.7568 2.1628,0.7568 0.9533,0 1.7133,-0.2693 2.283,-0.8076 0.567,-0.5383 0.8519,-1.2509 0.8519,-2.1342 h -1.029 c 0,0.5667 -0.1933,1.0387 -0.5828,1.4123 -0.3926,0.3736 -0.8992,0.5604 -1.5231,0.5604 -0.6049,0 -1.0862,-0.1551 -1.4439,-0.4624 -0.3547,-0.3104 -0.5321,-0.7123 -0.5321,-1.2064 0,-0.4022 0.1363,-0.7282 0.4085,-0.9816 0.2724,-0.2534 0.8583,-0.5984 1.764,-1.0293 0.9309,-0.4085 1.5769,-0.7472 1.9284,-1.0134 0.3515,-0.2659 0.6174,-0.5604 0.7979,-0.8832 0.1806,-0.3263 0.2693,-0.7127 0.2693,-1.156 0,-0.8297 -0.2883,-1.4882 -0.8645,-1.976 -0.5732,-0.4907 -1.3301,-0.7345 -2.2706,-0.7345 -0.9975,0 -1.8017,0.2721 -2.4194,0.8169 -0.6142,0.5446 -0.9212,1.2476 -0.9212,2.1059 h 1.0386 c 0.0314,-0.6208 0.2406,-1.1021 0.627,-1.4408 0.3861,-0.3422 0.9437,-0.5131 1.675,-0.5131 0.6301,0 1.137,0.155 1.5199,0.4623 0.3833,0.3104 0.5763,0.7189 0.5763,1.2319 z m 3.0748,3.0527 c 0,1.4471 0.3293,2.5934 0.9847,3.4324 0.6557,0.8425 1.5486,1.2637 2.6822,1.2637 1.1369,0 2.033,-0.415 2.6855,-1.2447 0.6523,-0.8263 0.9816,-1.9695 0.9879,-3.4231 v -1.0669 c 0,-1.4726 -0.3294,-2.619 -0.9879,-3.4424 -0.6588,-0.8232 -1.5486,-1.2348 -2.6665,-1.2348 -1.1209,0 -2.0075,0.402 -2.6629,1.2064 -0.6557,0.8042 -0.9975,1.9126 -1.023,3.3217 z m 1.042,-1.0324 c 0,-1.156 0.231,-2.0616 0.6996,-2.7232 0.4657,-0.6619 1.1148,-0.9913 1.9443,-0.9913 0.8455,0 1.4947,0.3166 1.9411,0.9533 0.4499,0.6363 0.6778,1.5483 0.684,2.7326 v 1.0641 c 0,1.1557 -0.2372,2.0645 -0.7061,2.7295 -0.4686,0.6619 -1.1177,0.9944 -1.938,0.9944 -0.798,0 -1.4344,-0.3229 -1.9029,-0.972 -0.4689,-0.6492 -0.7127,-1.5424 -0.722,-2.6759 z m 14.0471,-3.2995 c -0.5701,-0.9216 -1.4502,-1.3839 -2.6442,-1.3839 -0.9088,0 -1.5959,0.3166 -2.0613,0.9468 -0.4624,0.6301 -0.6968,1.5579 -0.703,2.7833 v 6.4916 h 1.0196 v -6.4757 c 0,-0.9088 0.1613,-1.599 0.4813,-2.071 0.3229,-0.4717 0.7852,-0.7061 1.3932,-0.7061 1.2983,0 2.1311,0.6332 2.4954,1.8969 v 7.3559 h 1.0386 v -10.0318 h -1.0006 z m 7.7014,7.8817 c -0.2472,0.0411 -0.4654,0.0632 -0.6491,0.0632 -0.5701,0 -1.0483,-0.1964 -1.4346,-0.5859 -0.3864,-0.3895 -0.6588,-0.9309 -0.8201,-1.6211 v -6.9319 h -1.0293 v 10.0318 h 1.0103 l 0.019,-1.4978 c 0.4876,1.1242 1.254,1.688 2.302,1.688 0.2693,0 0.4782,-0.0414 0.6208,-0.1204 z m 4.8132,-8.2967 c 0.7158,0 1.2666,0.1995 1.6498,0.5984 0.3832,0.4022 0.5922,0.9754 0.6239,1.726 h 0.991 c -0.0505,-1.0262 -0.3767,-1.8303 -0.9816,-2.4163 -0.6078,-0.5859 -1.368,-0.877 -2.2831,-0.877 -1.1939,0 -2.0962,0.383 -2.7042,1.1463 -0.6112,0.7631 -0.9216,1.8967 -0.9343,3.401 v 1.2255 c 0,1.5326 0.3073,2.6914 0.9153,3.4704 0.608,0.779 1.5137,1.1687 2.7136,1.1687 0.9944,0 1.7799,-0.3135 2.3562,-0.9405 0.5762,-0.6301 0.8801,-1.5075 0.9181,-2.6317 h -0.991 c -0.0317,0.8266 -0.2438,1.4695 -0.6333,1.9222 -0.3894,0.453 -0.9405,0.6809 -1.65,0.6809 -0.8898,0 -1.5452,-0.3008 -1.9633,-0.8992 -0.4178,-0.5987 -0.6236,-1.5168 -0.6236,-2.7584 v -1.1398 c 0,-1.2824 0.2089,-2.2167 0.6301,-2.8026 0.421,-0.5825 1.0766,-0.8739 1.9664,-0.8739 z m 8.7588,-0.9689 c -1.1809,0 -2.1056,0.3864 -2.7737,1.1588 -0.6684,0.7758 -1.0071,1.8748 -1.0199,3.306 v 1.2223 c 0,1.4726 0.32,2.6283 0.9627,3.4677 0.6428,0.839 1.5295,1.2571 2.6537,1.2571 1.0894,0 1.9191,-0.3549 2.4923,-1.0672 0.5731,-0.7126 0.8643,-1.802 0.877,-3.2681 v -0.9657 h -5.9658 v -0.5636 c 0,-1.1497 0.2469,-2.0364 0.7376,-2.66 0.4909,-0.6239 1.1843,-0.9374 2.0837,-0.9374 0.9879,0 1.7893,0.3611 2.4004,1.0831 l 0.5383,-0.6874 c -0.6556,-0.896 -1.6498,-1.3456 -2.9863,-1.3456 z m -0.1772,9.4428 c -0.8107,0 -1.4312,-0.2849 -1.8683,-0.8581 -0.4371,-0.57 -0.6746,-1.406 -0.7188,-2.505 h 4.9271 v 0.2693 c -0.0504,2.0614 -0.8294,3.0938 -2.34,3.0938 z m 9.4335,-3.727 c 0,1.4471 0.3293,2.5934 0.9847,3.4324 0.6557,0.8425 1.5486,1.2637 2.6822,1.2637 1.1369,0 2.033,-0.415 2.6855,-1.2447 0.6523,-0.8263 0.9816,-1.9695 0.9879,-3.4231 v -1.0669 c 0,-1.4726 -0.3294,-2.619 -0.9879,-3.4424 -0.6588,-0.8232 -1.5486,-1.2348 -2.6665,-1.2348 -1.1209,0 -2.0075,0.402 -2.6629,1.2064 -0.6557,0.8042 -0.9975,1.9126 -1.023,3.3217 z m 1.042,-1.0324 c 0,-1.156 0.231,-2.0616 0.6996,-2.7232 0.4657,-0.6619 1.1148,-0.9913 1.9443,-0.9913 0.8455,0 1.4947,0.3166 1.9411,0.9533 0.4499,0.6363 0.6778,1.5483 0.684,2.7326 v 1.0641 c 0,1.1557 -0.2372,2.0645 -0.7061,2.7295 -0.4686,0.6619 -1.1177,0.9944 -1.938,0.9944 -0.798,0 -1.4344,-0.3229 -1.9029,-0.972 -0.4689,-0.6492 -0.7127,-1.5424 -0.722,-2.6759 z m 9.3447,-4.4935 v 9.1009 h -1.3839 v 0.9309 h 1.3839 v 1.3173 c 0.009,0.9975 0.2406,1.7609 0.6902,2.2927 0.4465,0.532 1.0673,0.7982 1.859,0.7982 0.3608,0 0.6902,-0.0539 0.9941,-0.1585 l -0.076,-0.9499 c -0.2724,0.0664 -0.551,0.1012 -0.8328,0.1012 -0.5034,0 -0.8929,-0.1868 -1.1747,-0.5604 -0.282,-0.3736 -0.4212,-0.9088 -0.4212,-1.6086 v -1.232 h 1.9664 v -0.9309 h -1.9664 v -9.1009 z m 10.4465,0 h -1.0386 v 10.0318 h 1.0386 z m -1.1874,12.9356 c 0,0.2092 0.0569,0.3895 0.174,0.5383 0.1174,0.1489 0.2852,0.2248 0.5037,0.2248 0.2152,0 0.383,-0.0759 0.5035,-0.2248 0.1201,-0.1488 0.1805,-0.3291 0.1805,-0.5383 0,-0.212 -0.0604,-0.3926 -0.1805,-0.5383 -0.1205,-0.1457 -0.2883,-0.2185 -0.5035,-0.2185 -0.2185,0 -0.3863,0.0728 -0.5037,0.2185 -0.1171,0.1457 -0.174,0.3263 -0.174,0.5383 z m 5.019,-2.9038 0.0286,-1.5896 c 0.2945,0.5417 0.6744,0.9754 1.1336,1.2985 0.4623,0.3198 0.9847,0.4813 1.5738,0.4813 1.7512,0 2.6473,-1.1653 2.6918,-3.4959 v -6.7261 h -1.0231 v 6.6246 c -0.006,0.8963 -0.1613,1.561 -0.4716,1.9888 -0.3104,0.4274 -0.7949,0.6395 -1.4568,0.6395 -0.5383,0 -1.0227,-0.2027 -1.4502,-0.6081 -0.4308,-0.4053 -0.7568,-0.9626 -0.9816,-1.6687 v -6.9761 h -1.0293 v 10.0318 z m 8.7148,-10.0318 v 9.1009 h -1.3901 v 0.9309 h 1.3901 v 1.1495 c 0.019,1.0292 0.2787,1.8272 0.7852,2.4004 0.5034,0.5731 1.194,0.8583 2.071,0.8583 0.6871,0 1.4091,-0.1837 2.1628,-0.5511 l -0.1774,-0.9754 c -0.6301,0.3198 -1.2665,0.4814 -1.9094,0.4814 -1.2317,0 -1.8618,-0.7379 -1.8936,-2.2136 v -1.1495 h 1.9222 v -0.9309 h -1.9222 v -9.1009 z m 5.567,0 h -1.0389 v 10.0318 h 1.0389 z m 3.8568,10.0318 0.0286,-1.5896 c 0.2945,0.5417 0.6744,0.9754 1.1336,1.2985 0.4623,0.3198 0.9848,0.4813 1.5738,0.4813 1.7512,0 2.6473,-1.1653 2.6918,-3.4959 v -6.7261 h -1.023 v 6.6246 c -0.006,0.8963 -0.1613,1.561 -0.4717,1.9888 -0.3104,0.4274 -0.7949,0.6395 -1.4568,0.6395 -0.5383,0 -1.0227,-0.2027 -1.4502,-0.6081 -0.4308,-0.4053 -0.7568,-0.9626 -0.9816,-1.6687 v -6.9761 h -1.0293 v 10.0318 z m 9.3163,-10.0318 h -1.0386 v 10.0318 h 1.0386 z m -1.1874,12.9356 c 0,0.2092 0.057,0.3895 0.1741,0.5383 0.1173,0.1489 0.2851,0.2248 0.5037,0.2248 0.2151,0 0.3829,-0.0759 0.5034,-0.2248 0.1202,-0.1488 0.1806,-0.3291 0.1806,-0.5383 0,-0.212 -0.0604,-0.3926 -0.1806,-0.5383 -0.1205,-0.1457 -0.2883,-0.2185 -0.5034,-0.2185 -0.2186,0 -0.3864,0.0728 -0.5037,0.2185 -0.1171,0.1457 -0.1741,0.3263 -0.1741,0.5383 z m 5.5891,-0.3387 v -2.5651 h 1.7164 v -0.9309 h -1.7164 v -6.669 c 0,-0.5508 0.0822,-0.9627 0.2438,-1.2317 0.1647,-0.2693 0.4402,-0.4022 0.8234,-0.4022 0.1647,0 0.4116,0.0317 0.741,0.0918 l 0.0283,-0.9215 c -0.2341,-0.1043 -0.5731,-0.1582 -1.0133,-0.1582 -1.2033,0 -1.8238,0.8297 -1.8556,2.4857 v 6.8051 h -1.5486 v 0.9309 h 1.5486 v 2.5651 z m 7.2768,-12.7868 c -1.1809,0 -2.1056,0.3864 -2.7737,1.1588 -0.6684,0.7758 -1.0072,1.8748 -1.0199,3.306 v 1.2223 c 0,1.4726 0.32,2.6283 0.9626,3.4677 0.6429,0.839 1.5296,1.2571 2.6538,1.2571 1.0894,0 1.9191,-0.3549 2.4923,-1.0672 0.5731,-0.7126 0.8642,-1.802 0.877,-3.2681 v -0.9657 h -5.9658 v -0.5636 c 0,-1.1497 0.2469,-2.0364 0.7376,-2.66 0.4909,-0.6239 1.1843,-0.9374 2.0837,-0.9374 0.9879,0 1.7893,0.3611 2.4004,1.0831 l 0.5383,-0.6874 c -0.6557,-0.896 -1.6498,-1.3456 -2.9863,-1.3456 z m -0.1772,9.4428 c -0.8107,0 -1.4312,-0.2849 -1.8683,-0.8581 -0.4371,-0.57 -0.6746,-1.406 -0.7188,-2.505 h 4.9271 v 0.2693 c -0.0504,2.0614 -0.8294,3.0938 -2.34,3.0938 z m 13.1383,-9.4428 c -1.1809,0 -2.1055,0.3864 -2.7737,1.1588 -0.6684,0.7758 -1.0071,1.8748 -1.0199,3.306 v 1.2223 c 0,1.4726 0.3201,2.6283 0.9627,3.4677 0.6429,0.839 1.5295,1.2571 2.6538,1.2571 1.0893,0 1.919,-0.3549 2.4922,-1.0672 0.5732,-0.7126 0.8643,-1.802 0.877,-3.2681 v -0.9657 h -5.9658 v -0.5636 c 0,-1.1497 0.2469,-2.0364 0.7376,-2.66 0.491,-0.6239 1.1843,-0.9374 2.0838,-0.9374 0.9878,0 1.7892,0.3611 2.4003,1.0831 l 0.5383,-0.6874 c -0.6556,-0.896 -1.6497,-1.3456 -2.9863,-1.3456 z m -0.1771,9.4428 c -0.8107,0 -1.4312,-0.2849 -1.8683,-0.8581 -0.4371,-0.57 -0.6747,-1.406 -0.7189,-2.505 h 4.9272 v 0.2693 c -0.0505,2.0614 -0.8294,3.0938 -2.34,3.0938 z m 6.5327,0.7789 0.0286,-1.5896 c 0.2945,0.5417 0.6744,0.9754 1.1336,1.2985 0.4623,0.3198 0.9848,0.4813 1.5738,0.4813 1.7512,0 2.6473,-1.1653 2.6918,-3.4959 v -6.7261 h -1.0231 v 6.6246 c -0.006,0.8963 -0.1612,1.561 -0.4716,1.9888 -0.3104,0.4274 -0.7949,0.6395 -1.4568,0.6395 -0.5383,0 -1.0227,-0.2027 -1.4502,-0.6081 -0.4308,-0.4053 -0.7568,-0.9626 -0.9816,-1.6687 v -6.9761 h -1.0293 v 10.0318 z m 11.4854,-10.2217 c -1.1809,0 -2.1056,0.3864 -2.7737,1.1588 -0.6684,0.7758 -1.0071,1.8748 -1.0199,3.306 v 1.2223 c 0,1.4726 0.32,2.6283 0.9626,3.4677 0.6429,0.839 1.5296,1.2571 2.6538,1.2571 1.0894,0 1.9191,-0.3549 2.4923,-1.0672 0.5731,-0.7126 0.8642,-1.802 0.877,-3.2681 v -0.9657 h -5.9658 v -0.5636 c 0,-1.1497 0.2469,-2.0364 0.7376,-2.66 0.4909,-0.6239 1.1843,-0.9374 2.0837,-0.9374 0.9879,0 1.7893,0.3611 2.4004,1.0831 l 0.5383,-0.6874 c -0.6556,-0.896 -1.6498,-1.3456 -2.9863,-1.3456 z m -0.1772,9.4428 c -0.8107,0 -1.4312,-0.2849 -1.8683,-0.8581 -0.4371,-0.57 -0.6746,-1.406 -0.7188,-2.505 h 4.9271 v 0.2693 c -0.0504,2.0614 -0.8294,3.0938 -2.34,3.0938 z m 9.4842,-0.1772 c -0.2472,0.0411 -0.4654,0.0632 -0.6491,0.0632 -0.5701,0 -1.0483,-0.1964 -1.4346,-0.5859 -0.3864,-0.3895 -0.6588,-0.9309 -0.8201,-1.6211 v -6.9319 H 350.24 v 10.0318 h 1.0103 l 0.019,-1.4978 c 0.4876,1.1242 1.254,1.688 2.302,1.688 0.2693,0 0.4782,-0.0414 0.6208,-0.1204 z m 1.273,-3.5943 c 0,1.5834 0.2722,2.7677 0.817,3.5563 0.5445,0.7883 1.3615,1.1843 2.4508,1.1843 1.156,0 2.014,-0.5289 2.5778,-1.5896 l 0.057,1.3994 h 0.953 v -10.3135 c -0.006,-1.213 -0.2945,-2.1311 -0.8677,-2.7613 -0.57,-0.6304 -1.4028,-0.947 -2.4984,-0.947 -0.5511,0 -1.1052,0.1363 -1.6656,0.4084 -0.5605,0.2725 -0.9848,0.605 -1.2762,0.9976 l 0.4844,0.7409 c 0.684,-0.7852 1.4789,-1.1778 2.3814,-1.1778 0.836,0 1.444,0.2217 1.8241,0.6616 0.3799,0.4403 0.5732,1.1118 0.5794,2.0141 v 1.5927 c -0.5604,-0.9592 -1.4153,-1.4374 -2.5585,-1.4374 -1.0452,0 -1.8462,0.3926 -2.4004,1.1778 -0.5511,0.7855 -0.8391,1.9222 -0.8581,3.4075 z m 1.0387,-0.9437 c 0,-1.292 0.1961,-2.2388 0.5856,-2.8468 0.3895,-0.6078 1.0006,-0.9119 1.8368,-0.9119 1.1146,0 1.8998,0.5289 2.3559,1.5896 v 5.1458 c -0.4623,1.1463 -1.2413,1.7195 -2.3369,1.7195 -0.8424,0 -1.4567,-0.3008 -1.8462,-0.9026 -0.3894,-0.6015 -0.589,-1.5327 -0.5952,-2.7895 z m 11.2317,-2.8372 2.3941,8.3313 h 1.1018 l -3.5339,-11.6308 -0.1931,-0.5576 c -0.4782,-1.2603 -1.2064,-1.8904 -2.1914,-1.8904 -0.2342,0 -0.4813,0.0445 -0.741,0.1298 l -0.009,0.9437 c 0.1425,-0.0442 0.3007,-0.0664 0.4716,-0.0664 0.4468,0 0.8107,0.133 1.0959,0.3989 0.2849,0.2662 0.5193,0.6967 0.7061,1.2889 l 0.4275,1.4187 -3.1572,9.9652 h 1.1338 l 2.4951,-8.3313 z m 4.2655,-1.0261 c 0,0.2217 0.0698,0.4087 0.2058,0.5607 0.1395,0.1519 0.3357,0.2279 0.5828,0.2279 0.2469,0 0.44,-0.076 0.5826,-0.2279 0.1425,-0.152 0.2154,-0.339 0.2154,-0.5607 0,-0.2152 -0.0729,-0.3957 -0.2154,-0.5383 -0.1426,-0.1423 -0.3357,-0.212 -0.5826,-0.212 -0.2471,0 -0.4433,0.0697 -0.5828,0.212 -0.136,0.1426 -0.2058,0.3231 -0.2058,0.5383 z m 4.5377,0 c 0,0.2217 0.0698,0.4087 0.2058,0.5607 0.1395,0.1519 0.3357,0.2279 0.5828,0.2279 0.2469,0 0.44,-0.076 0.5826,-0.2279 0.1425,-0.152 0.2154,-0.339 0.2154,-0.5607 0,-0.2152 -0.0729,-0.3957 -0.2154,-0.5383 -0.1426,-0.1423 -0.3357,-0.212 -0.5826,-0.212 -0.2471,0 -0.4433,0.0697 -0.5828,0.212 -0.136,0.1426 -0.2058,0.3231 -0.2058,0.5383 z m 4.5377,0 c 0,0.2217 0.0698,0.4087 0.2058,0.5607 0.1395,0.1519 0.3357,0.2279 0.5828,0.2279 0.2469,0 0.44,-0.076 0.5826,-0.2279 0.1425,-0.152 0.2154,-0.339 0.2154,-0.5607 0,-0.2152 -0.0729,-0.3957 -0.2154,-0.5383 -0.1426,-0.1423 -0.3357,-0.212 -0.5826,-0.212 -0.2471,0 -0.4433,0.0697 -0.5828,0.212 -0.136,0.1426 -0.2058,0.3231 -0.2058,0.5383"
       style="fill:#1a1a18;fill-opacity:1;fill-rule:nonzero;stroke:none"
       id="path43" /></g></svg>
